<?xml version="1.0" encoding="utf-8"?>
<!DOCTYPE svg PUBLIC "-//W3C//DTD SVG 1.1//EN" "http://www.w3.org/Graphics/SVG/1.1/DTD/svg11.dtd">
<svg version="1.1" id="Layer_1" xmlns="http://www.w3.org/2000/svg" xmlns:xlink="http://www.w3.org/1999/xlink" x="0px" y="0px"
	 viewBox="0 0 100 100" style="enable-background:new 0 0 100 100;" xml:space="preserve">
<path fill="#6aad3c" d="M67.751,58.662c-1.206-5.278-4.105-9.798-7.14-13.574c-6.894-7.755-9.533-15.963-10.881-26.004
	c-1.166,10.967-6.809,19.722-12.561,28.682c-3.106,4.815-5.634,10.517-5.376,16.39c0.474,10.271,9.126,18.026,21.025,16.591
	C63.349,79.468,70.12,68.721,67.751,58.662z M43.288,75.008c-1.453,1.189-5.695-0.142-7.437-5.044
	c-1.02-2.309-1.494-8.171,0.048-12.798c1.355-4.714,4.112-7.817,4.049-7.812c0.031-0.004-1.129,3.922-0.869,8.204
	c0.265,4.319,1.953,8.53,2.743,10.067C43.389,70.658,45.112,73.519,43.288,75.008z"/>
<path fill="#6aad3c" d="M50,100c-27.57,0-50-22.43-50-50S22.431,0,50,0c27.569,0,50,22.43,50,50S77.57,100,50,100z M50,10.184
	c-21.957,0-39.816,17.862-39.816,39.816c0,21.956,17.86,39.817,39.816,39.817c21.955,0,39.816-17.861,39.816-39.817
	C89.816,28.045,71.955,10.184,50,10.184z"/>
<path fill="#6aad3c" d="M50,0C22.431,0,0,22.43,0,50s22.431,50,50,50c27.569,0,50-22.43,50-50S77.57,0,50,0z M50,89.817
	c-21.957,0-39.816-17.861-39.816-39.817c0-21.955,17.86-39.816,39.816-39.816c21.955,0,39.816,17.862,39.816,39.816
	C89.816,71.956,71.955,89.817,50,89.817z"/>
</svg>
